<?xml version="1.0" encoding="UTF-8" standalone="no"?> <!-- Created with Vectornator for iOS (http://vectornator.io/) --><!DOCTYPE svg PUBLIC "-//W3C//DTD SVG 1.1//EN" "http://www.w3.org/Graphics/SVG/1.1/DTD/svg11.dtd">
<svg height="100%" style="fill-rule:nonzero;clip-rule:evenodd;stroke-linecap:round;stroke-linejoin:round;" xmlns:xlink="http://www.w3.org/1999/xlink" xmlns="http://www.w3.org/2000/svg" xml:space="preserve" width="100%" xmlns:vectornator="http://vectornator.io" version="1.1" viewBox="0 0 815 200">
<metadata>
<vectornator:setting key="DimensionsVisible" value="1"/>
<vectornator:setting key="PencilOnly" value="1"/>
<vectornator:setting key="SnapToPoints" value="0"/>
<vectornator:setting key="OutlineMode" value="0"/>
<vectornator:setting key="CMYKEnabledKey" value="0"/>
<vectornator:setting key="RulersVisible" value="1"/>
<vectornator:setting key="SnapToEdges" value="0"/>
<vectornator:setting key="GuidesVisible" value="1"/>
<vectornator:setting key="DisplayWhiteBackground" value="0"/>
<vectornator:setting key="doHistoryDisabled" value="0"/>
<vectornator:setting key="SnapToGuides" value="1"/>
<vectornator:setting key="TimeLapseWatermarkDisabled" value="0"/>
<vectornator:setting key="Units" value="Pixels"/>
<vectornator:setting key="DynamicGuides" value="0"/>
<vectornator:setting key="IsolateActiveLayer" value="0"/>
<vectornator:setting key="SnapToGrid" value="0"/>
</metadata>
<defs/>
<g id="Layer 1" vectornator:layerName="Layer 1">
<g opacity="1">
<path d="M72.6356+159.427L17.1864+159.427L17.1864+37.0734L76.62+37.0734C91.6167+37.2948+102.242+41.6388+108.495+50.1056C112.258+55.3075+114.139+61.5331+114.139+68.7824C114.139+76.2531+112.258+82.2573+108.495+86.7951C106.392+89.3407+103.293+91.6649+99.1981+93.7678C105.451+96.0366+110.169+99.6336+113.351+104.559C116.533+109.484+118.124+115.46+118.124+122.488C118.124+129.738+116.298+136.24+112.645+141.995C110.321+145.814+107.416+149.023+103.93+151.624C100+154.612+95.3659+156.66+90.0257+157.767C84.6856+158.874+78.8888+159.427+72.6356+159.427ZM84.1737+136.019C89.5969+133.362+92.3084+128.271+92.3084+120.745C92.3084+114.381+89.6799+110.01+84.4227+107.63C81.4898+106.302+77.367+105.61+72.0545+105.555L41.5907+105.555L41.5907+138.177L71.6395+138.177C77.0073+138.177+81.1854+137.458+84.1737+136.019ZM83.0946+60.2326C79.2762+58.9598+74.4064+58.3234+68.4852+58.3234L41.5907+58.3234L41.5907+85.301L71.6395+85.301C77.0073+85.301+81.3652+84.291+84.7132+82.2712C88.0612+80.2513+89.7352+76.6681+89.7352+71.5217C89.7352+65.8218+87.5217+62.0588+83.0946+60.2326Z" opacity="1" fill="#ff3b3b"/>
<path d="M289.12+118.172L289.12+68.9484L313.109+68.9484L313.109+159.427L290.116+159.427L290.116+146.644C289.895+146.92+289.341+147.751+288.456+149.134C287.57+150.517+286.519+151.735+285.302+152.786C281.594+156.107+278.011+158.376+274.552+159.593C271.093+160.81+267.04+161.419+262.391+161.419C249+161.419+239.979+156.605+235.331+146.976C232.73+141.663+231.43+133.833+231.43+123.485L231.43+68.9484L255.668+68.9484L255.668+123.485C255.668+128.631+256.277+132.505+257.494+135.106C259.652+139.699+263.886+141.995+270.194+141.995C278.274+141.995+283.807+138.73+286.796+132.2C288.345+128.659+289.12+123.983+289.12+118.172Z" opacity="1" fill="#ff3b3b"/>
<path d="M409.066+74.0949C414.987+79.02+417.948+87.1548+417.948+98.4992L417.948+159.427L393.71+159.427L393.71+104.393C393.71+99.6336+393.073+95.9813+391.801+93.4357C389.476+88.7873+385.049+86.4631+378.519+86.4631C370.495+86.4631+364.989+89.8664+362.001+96.673C360.451+100.27+359.677+104.863+359.677+110.452L359.677+159.427L336.102+159.427L336.102+69.1144L358.93+69.1144L358.93+82.3127C361.973+77.6642+364.851+74.3163+367.562+72.2687C372.432+68.6164+378.602+66.7902+386.073+66.7902C395.425+66.7902+403.09+69.2251+409.066+74.0949Z" opacity="1" fill="#ff3b3b"/>
<path d="M478.046+86.7951C470.077+86.7951+464.626+90.7518+461.693+98.6652C460.144+102.871+459.369+108.46+459.369+115.433C459.369+122.073+460.144+127.414+461.693+131.453C464.515+138.979+469.828+142.742+477.631+142.742C483.165+142.742+487.094+141.248+489.418+138.26C491.742+135.272+493.153+131.398+493.651+126.639L517.806+126.639C517.253+133.833+514.652+140.639+510.004+147.059C502.588+157.407+491.604+162.581+477.05+162.581C462.496+162.581+451.788+158.265+444.926+149.632C438.064+140.999+434.633+129.793+434.633+116.014C434.633+100.464+438.423+88.3722+446.005+79.7394C453.586+71.1066+464.045+66.7902+477.382+66.7902C488.726+66.7902+498.009+69.3358+505.231+74.4269C512.452+79.5181+516.727+88.5106+518.056+101.404L493.817+101.404C493.375+98.0288+492.24+94.9852+490.414+92.2736C487.758+88.6213+483.635+86.7951+478.046+86.7951Z" opacity="1" fill="#ff3b3b"/>
<path d="M558.646+68.9484L558.646+159.427L534.657+159.427L534.657+68.9484L558.646+68.9484ZM558.646+36.3263L558.646+58.1574L534.657+58.1574L534.657+36.3263L558.646+36.3263Z" opacity="1" fill="#ff3b3b"/>
<path d="M618.08+162.415C606.57+162.415+596.415+158.708+587.616+151.292C578.817+143.877+574.418+131.813+574.418+115.101C574.418+99.44+578.388+87.4315+586.329+79.0754C594.271+70.7192+604.577+66.5412+617.25+66.5412C624.776+66.5412+631.555+67.9523+637.587+70.7746C643.619+73.5969+648.599+78.0516+652.528+84.1388C656.07+89.5067+658.366+95.7323+659.418+102.816C660.027+106.966+660.276+112.943+660.165+120.745L598.241+120.745C598.573+129.821+601.423+136.185+606.791+139.837C610.056+142.106+613.985+143.24+618.578+143.24C623.448+143.24+627.404+141.857+630.448+139.09C632.108+137.596+633.575+135.521+634.848+132.864L659.003+132.864C658.394+138.232+655.599+143.683+650.619+149.217C642.872+158.016+632.025+162.415+618.08+162.415ZM617.25+86.048C611.771+86.048+607.524+87.7635+604.508+91.1945C601.492+94.6255+599.597+99.2739+598.822+105.14L635.595+105.14C635.207+98.8866+633.312+94.1413+629.909+90.904C626.505+87.6667+622.286+86.048+617.25+86.048Z" opacity="1" fill="#ff3b3b"/>
<path d="M700.175+86.8781C697.961+88.4829+696.854+90.3644+696.854+92.5226C696.854+95.2342+698.016+97.1987+700.341+98.4162C702.665+99.689+710.883+101.875+724.994+104.974C734.402+107.187+741.457+110.535+746.161+115.018C750.809+119.556+753.134+125.228+753.134+132.034C753.134+140.999+749.799+148.318+743.131+153.99C736.463+159.662+726.156+162.498+712.211+162.498C697.989+162.498+687.488+159.496+680.709+153.492C673.93+147.488+670.541+139.837+670.541+130.54L694.53+130.54C695.028+134.746+696.107+137.734+697.767+139.505C700.7+142.659+706.124+144.237+714.037+144.237C718.685+144.237+722.379+143.545+725.118+142.161C727.858+140.778+729.227+138.703+729.227+135.936C729.227+133.279+728.121+131.26+725.907+129.876C723.694+128.493+715.476+126.113+701.254+122.737C691.016+120.192+683.794+117.01+679.589+113.192C675.383+109.429+673.28+104.005+673.28+96.922C673.28+88.5659+676.559+81.3858+683.117+75.3815C689.674+69.3773+698.902+66.3752+710.8+66.3752C722.089+66.3752+731.289+68.6302+738.4+73.1403C745.511+77.6504+749.592+85.4393+750.643+96.507L726.986+96.507C726.654+93.4634+725.796+91.0562+724.413+89.2853C721.812+86.0757+717.385+84.4709+711.132+84.4709C705.985+84.4709+702.333+85.2733+700.175+86.8781Z" opacity="1" fill="#ff3b3b"/>
<path d="M67.1571+232.573C84.0353+232.573+98.451+238.55+110.404+250.503C122.357+262.456+128.334+276.872+128.334+293.75C128.334+311.126+122.219+325.764+109.989+337.661C98.0913+349.172+83.814+354.927+67.1571+354.927C49.9468+354.927+35.4481+349.033+23.661+337.246C11.8739+325.459+5.98032+310.96+5.98032+293.75C5.98032+275.876+12.3442+261.017+25.0721+249.175C37.0252+238.107+51.0536+232.573+67.1571+232.573ZM102.85+258.306C92.9448+248.124+81.047+243.032+67.1571+243.032C53.1011+243.032+41.1203+248.124+31.2147+258.306C21.4751+268.267+16.6053+280.082+16.6053+293.75C16.6053+307.917+21.5581+319.953+31.4637+329.859C41.314+339.764+53.2118+344.717+67.1571+344.717C81.047+344.717+92.9172+339.737+102.767+329.776C112.618+319.759+117.543+307.751+117.543+293.75C117.543+280.137+112.645+268.322+102.85+258.306ZM90.8973+292.173C87.6877+294.719+83.7586+296.24+79.1102+296.738C83.3713+297.624+86.5809+298.924+88.7391+300.64C92.7235+303.849+94.7157+308.913+94.7157+315.83L94.7157+321.89C94.7157+322.554+94.7572+323.218+94.8402+323.882C94.9232+324.546+95.0754+325.21+95.2967+325.874L95.8778+327.783L78.9442+327.783C78.3908+325.625+78.0311+322.499+77.8651+318.403C77.6991+314.308+77.3394+311.542+76.786+310.103C75.9006+307.723+74.2404+306.063+71.8055+305.122C70.4774+304.569+68.4575+304.209+65.7459+304.043L61.8446+303.794L58.1092+303.794L58.1092+327.783L40.3456+327.783L40.3456+259.966C44.5513+259.966+50.846+259.98+59.2298+260.007C67.6136+260.035+72.2759+260.077+73.2166+260.132C78.5845+260.519+83.0392+261.681+86.5809+263.618C92.6128+266.939+95.6288+272.334+95.6288+279.805C95.6288+285.505+94.0516+289.627+90.8973+292.173ZM58.1092+291.592L64.9989+291.592C69.1493+291.592+72.3866+290.762+74.7108+289.102C77.035+287.442+78.1971+284.758+78.1971+281.05C78.1971+277.342+76.3709+274.769+72.7186+273.33C70.2837+272.389+66.8527+271.919+62.4256+271.919L58.1092+271.919L58.1092+291.592Z" opacity="1" fill="#ff3b3b"/>
</g>
<path d="M123.606+115.832C123.606+88.4934+145.768+66.3316+173.106+66.3316C200.444+66.3316+222.606+88.4934+222.606+115.832C222.606+143.17+200.444+165.332+173.106+165.332C145.768+165.332+123.606+143.17+123.606+115.832Z" opacity="1" fill="#ff3b3b"/>
</g>
<g id="Layer 2" vectornator:layerName="Layer 2">
<path d="M129.441+157.005C125.046+157.397+121.734+161.26+122.126+165.655C122.204+166.534+122.528+167.307+122.861+168.074C122.872+168.141+122.902+168.256+122.915+168.314C122.936+168.403+123.279+169.676+123.301+169.74C123.335+169.841+123.406+169.999+123.455+170.146C137.254+183.908+156.643+191.815+177.608+189.947C195.144+188.384+210.035+180.058+221.033+168.099C220.999+168.043+220.97+167.985+220.932+167.933C222.887+166.065+223.934+163.356+223.295+160.527C222.327+156.238+218.098+153.567+213.809+154.536C212.118+154.918+210.79+155.892+209.722+157.098L209.608+156.871C201.337+166.278+190.088+172.963+176.567+174.168C161.126+175.544+146.963+169.776+136.475+159.956C136.401+159.991+136.296+159.917+136.222+159.95C134.602+157.973+132.179+156.761+129.441+157.005Z" opacity="1" fill="#ff3b3b"/>
<path d="M530.796+47.7056C530.796+38.869+537.959+31.7056+546.796+31.7056C555.632+31.7056+562.796+38.869+562.796+47.7056C562.796+56.5421+555.632+63.7056+546.796+63.7056C537.959+63.7056+530.796+56.5421+530.796+47.7056Z" opacity="0.976744" fill="#ff3b3b"/>
<g opacity="1">
<path d="M778.052+48.2025C783.116+48.2025+787.441+49.9955+791.027+53.5815C794.613+57.1674+796.405+61.4921+796.405+66.5556C796.405+71.7685+794.571+76.1596+790.902+79.7289C787.333+83.182+783.05+84.9086+778.052+84.9086C772.889+84.9086+768.54+83.1405+765.004+79.6044C761.467+76.0683+759.699+71.7187+759.699+66.5556C759.699+61.1933+761.609+56.7358+765.427+53.183C769.013+49.8627+773.221+48.2025+778.052+48.2025ZM788.76+55.9223C785.789+52.8676+782.219+51.3402+778.052+51.3402C773.836+51.3402+770.241+52.8676+767.27+55.9223C764.348+58.9106+762.887+62.455+762.887+66.5556C762.887+70.8056+764.373+74.4164+767.344+77.3881C770.3+80.3598+773.869+81.8456+778.052+81.8456C782.219+81.8456+785.78+80.3515+788.736+77.3632C791.691+74.3583+793.168+70.7558+793.168+66.5556C793.168+62.4716+791.699+58.9272+788.76+55.9223ZM785.175+66.0824C784.212+66.8461+783.033+67.3026+781.638+67.4521C782.917+67.7177+783.88+68.1078+784.527+68.6225C785.722+69.5854+786.32+71.1044+786.32+73.1796L786.32+74.9975C786.32+75.1967+786.332+75.3959+786.357+75.5951C786.382+75.7943+786.428+75.9936+786.494+76.1928L786.669+76.7655L781.589+76.7655C781.423+76.1181+781.315+75.1801+781.265+73.9516C781.215+72.7231+781.107+71.893+780.941+71.4613C780.676+70.7475+780.177+70.2494+779.447+69.9672C779.049+69.8012+778.443+69.6933+777.629+69.6435L776.459+69.5688L775.338+69.5688L775.338+76.7655L770.009+76.7655L770.009+56.4203C771.271+56.4203+773.159+56.4245+775.674+56.4328C778.189+56.4411+779.588+56.4535+779.87+56.4701C781.481+56.5863+782.817+56.935+783.88+57.516C785.689+58.5121+786.594+60.1308+786.594+62.372C786.594+64.0819+786.121+65.3188+785.175+66.0824ZM775.338+65.9081L777.405+65.9081C778.65+65.9081+779.621+65.6591+780.319+65.161C781.016+64.663+781.364+63.8578+781.364+62.7455C781.364+61.6332+780.817+60.8612+779.721+60.4296C778.99+60.1474+777.961+60.0063+776.633+60.0063L775.338+60.0063L775.338+65.9081Z" opacity="1" fill="#ff3b3b"/>
</g>
</g>
</svg>
